<svg xmlns="http://www.w3.org/2000/svg" xmlns:xlink="http://www.w3.org/1999/xlink" version="1.1" x="0px" y="0px" viewBox="0 0 100 125" enable-background="new 0 0 100 100" xml:space="preserve"><g><path d="M87.615,28.509c-0.273,0.171-0.579,0.252-0.879,0.252c-0.556,0-1.099-0.278-1.414-0.783   c-0.845-1.356-1.778-2.674-2.77-3.916c-0.574-0.718-0.457-1.765,0.262-2.339c0.718-0.575,1.767-0.455,2.339,0.262   c1.073,1.342,2.079,2.766,2.994,4.231C88.633,26.996,88.395,28.022,87.615,28.509z"/><path d="M78.829,19.372c-0.395,0-0.793-0.14-1.11-0.424c-1.183-1.06-2.446-2.064-3.753-2.988c-0.751-0.53-0.93-1.568-0.398-2.319   c0.528-0.749,1.565-0.93,2.319-0.398c1.409,0.995,2.773,2.08,4.052,3.225c0.684,0.613,0.743,1.666,0.13,2.35   C79.741,19.185,79.285,19.372,78.829,19.372z"/><path d="M93.254,51.643c-0.918,0-1.656-0.507-1.648-1.427l0.003-0.245c0-1.442-0.073-2.895-0.219-4.304   c-0.094-0.915,0.572-1.749,1.485-1.843c0.917-0.067,1.731,0.54,1.827,1.453c0.156,1.523,0.236,3.018,0.236,4.572l-0.003,0.405   c-0.008,0.914-0.752,1.39-1.664,1.39C93.265,51.643,93.26,51.643,93.254,51.643z"/><path d="M92.134,39.931c-0.149,0.042-0.299,0.062-0.449,0.062c-0.728,0-1.396-0.481-1.601-1.217   c-0.429-1.536-0.952-3.064-1.555-4.54c-0.348-0.85,0.06-1.822,0.912-2.17c0.843-0.348,1.822,0.06,2.17,0.912   c0.652,1.593,1.216,3.244,1.679,4.904C93.536,38.767,93.02,39.684,92.134,39.931z"/><path d="M89.806,62.136c0.463-1.518,0.844-3.087,1.131-4.66c0.164-0.905,1.026-1.515,1.934-1.339   c0.905,0.164,1.505,1.03,1.339,1.934c-0.309,1.702-0.72,3.397-1.222,5.037c-0.218,0.717-0.878,1.178-1.591,1.178   c-0.161,0-0.325-0.023-0.486-0.073C90.032,63.945,89.537,63.015,89.806,62.136z"/><path d="M68.618,12.571c-0.241,0-0.484-0.052-0.715-0.162c-1.44-0.688-2.934-1.297-4.439-1.811   c-0.869-0.296-1.334-1.242-1.037-2.113c0.297-0.869,1.243-1.338,2.113-1.037c1.627,0.554,3.241,1.214,4.796,1.957   c0.831,0.397,1.182,1.39,0.785,2.219C69.836,12.222,69.241,12.571,68.618,12.571z"/><path d="M13.038,30.853c-0.296,0.572-0.876,0.899-1.479,0.899c-0.257,0-0.52-0.06-0.764-0.187   c-0.816-0.423-1.134-1.427-0.712-2.243c0.79-1.525,1.679-3.023,2.644-4.453c0.515-0.761,1.547-0.962,2.311-0.449   c0.762,0.515,0.962,1.549,0.449,2.311C14.594,28.054,13.769,29.442,13.038,30.853z"/><path d="M10.343,37.345c-0.483,1.516-0.881,3.078-1.187,4.645c-0.154,0.796-0.852,1.347-1.632,1.347   c-0.106,0-0.211-0.01-0.319-0.031c-0.904-0.176-1.492-1.048-1.317-1.95c0.328-1.693,0.761-3.382,1.281-5.019   c0.28-0.878,1.221-1.362,2.09-1.082C10.137,35.534,10.621,36.47,10.343,37.345z"/><path d="M56.906,8.918c-0.086,0-0.176-0.006-0.265-0.021c-1.573-0.252-3.179-0.414-4.774-0.486c-0.918-0.041-1.63-0.818-1.59-1.736   c0.041-0.922,0.907-1.622,1.736-1.589c1.721,0.076,3.455,0.253,5.154,0.525c0.907,0.145,1.525,0.998,1.38,1.907   C58.418,8.334,57.711,8.918,56.906,8.918z"/><path d="M44.838,8.687c-1.591,0.197-3.179,0.488-4.718,0.865c-0.133,0.032-0.265,0.047-0.397,0.047   c-0.749,0-1.429-0.509-1.616-1.269c-0.218-0.892,0.33-1.793,1.222-2.012c1.664-0.406,3.379-0.72,5.099-0.933   c0.915-0.127,1.742,0.536,1.856,1.446C46.398,7.742,45.75,8.574,44.838,8.687z"/><path d="M33.452,11.79c-1.463,0.635-2.904,1.362-4.281,2.162c-0.263,0.153-0.551,0.224-0.834,0.224   c-0.574,0-1.133-0.297-1.442-0.829c-0.462-0.796-0.19-1.814,0.604-2.276c1.489-0.863,3.046-1.648,4.629-2.334   c0.839-0.372,1.824,0.019,2.188,0.865C34.683,10.444,34.296,11.424,33.452,11.79z"/><path d="M17.49,18.957c1.19-1.247,2.462-2.436,3.785-3.537c0.707-0.588,1.759-0.491,2.344,0.215   c0.588,0.707,0.492,1.755-0.215,2.344c-1.225,1.019-2.404,2.121-3.506,3.277c-0.327,0.343-0.766,0.515-1.204,0.515   c-0.413,0-0.827-0.153-1.149-0.46C16.88,20.675,16.856,19.622,17.49,18.957z"/><path d="M12.643,71.896c0.775-0.499,1.802-0.273,2.3,0.502c0.865,1.347,1.812,2.654,2.818,3.885c0.582,0.71,0.476,1.76-0.236,2.342   c-0.309,0.252-0.681,0.375-1.052,0.375c-0.483,0-0.96-0.208-1.29-0.611c-1.086-1.328-2.11-2.739-3.043-4.193   C11.645,73.422,11.869,72.392,12.643,71.896z"/><path d="M22.652,81.336c1.206,1.053,2.482,2.043,3.789,2.942c0.757,0.522,0.949,1.557,0.429,2.314   c-0.323,0.47-0.843,0.722-1.373,0.722c-0.325,0-0.653-0.094-0.941-0.293c-1.412-0.972-2.789-2.04-4.091-3.176   c-0.692-0.604-0.764-1.656-0.161-2.349C20.911,80.803,21.963,80.733,22.652,81.336z"/><path d="M5.074,48.906c0.021-0.92,0.816-1.676,1.703-1.625c0.92,0.023,1.646,0.785,1.625,1.703   c-0.008,0.332-0.011,0.663-0.011,0.995c0,1.604,0.093,3.217,0.273,4.792c0.106,0.913-0.549,1.739-1.463,1.843   c-0.065,0.008-0.129,0.011-0.192,0.011c-0.834,0-1.554-0.626-1.651-1.474c-0.197-1.702-0.296-3.441-0.296-5.172   C5.063,49.621,5.066,49.263,5.074,48.906z"/><path d="M7.99,60.529c0.883-0.257,1.806,0.249,2.064,1.131c0.445,1.525,0.988,3.046,1.611,4.52   c0.358,0.847-0.037,1.824-0.884,2.181c-0.211,0.089-0.432,0.132-0.648,0.132c-0.649,0-1.265-0.382-1.533-1.016   c-0.673-1.593-1.26-3.236-1.741-4.884C6.6,61.71,7.107,60.787,7.99,60.529z"/><path d="M32.549,87.763c1.447,0.668,2.947,1.26,4.462,1.757c0.874,0.286,1.349,1.227,1.063,2.1   c-0.231,0.702-0.881,1.146-1.581,1.146c-0.172,0-0.346-0.026-0.518-0.083c-1.637-0.538-3.259-1.177-4.822-1.9   c-0.834-0.385-1.198-1.375-0.811-2.209C30.725,87.74,31.715,87.373,32.549,87.763z"/><path d="M67,87.968c1.453-0.652,2.885-1.398,4.26-2.214c0.788-0.473,1.812-0.21,2.28,0.58c0.47,0.79,0.21,1.81-0.58,2.28   c-1.482,0.881-3.03,1.685-4.598,2.389c-0.221,0.099-0.452,0.146-0.679,0.146c-0.635,0-1.243-0.366-1.52-0.983   C65.785,89.328,66.161,88.343,67,87.968z"/><path d="M80.443,78.341c0.629-0.671,1.679-0.709,2.354-0.081c0.671,0.627,0.709,1.681,0.081,2.354   c-1.177,1.26-2.436,2.464-3.743,3.577c-0.314,0.268-0.697,0.398-1.079,0.398c-0.47,0-0.938-0.198-1.266-0.585   c-0.597-0.699-0.514-1.749,0.187-2.345C78.187,80.626,79.352,79.51,80.443,78.341z"/><path d="M87.188,68.664c0.413-0.823,1.419-1.152,2.235-0.74c0.823,0.415,1.152,1.414,0.74,2.235   c-0.774,1.538-1.645,3.046-2.591,4.484c-0.32,0.486-0.852,0.749-1.393,0.749c-0.314,0-0.631-0.088-0.913-0.273   c-0.767-0.505-0.98-1.538-0.476-2.306C85.665,71.482,86.473,70.086,87.188,68.664z"/><path d="M55.655,91.205c1.586-0.215,3.169-0.525,4.707-0.92c0.887-0.224,1.798,0.307,2.027,1.198   c0.229,0.891-0.307,1.798-1.198,2.027c-1.663,0.427-3.374,0.762-5.087,0.995c-0.076,0.01-0.151,0.015-0.226,0.015   c-0.821,0-1.534-0.606-1.648-1.44C54.106,92.168,54.744,91.329,55.655,91.205z"/><path d="M43.85,91.139c1.577,0.232,3.186,0.38,4.782,0.432c0.918,0.029,1.638,0.805,1.608,1.725   c-0.029,0.899-0.767,1.62-1.661,1.62c-0.019,0-0.037,0-0.057,0c-1.721,0-3.457-0.223-5.159-0.475   c-0.909-0.135-1.538-0.991-1.403-1.902C42.093,91.633,42.923,91.01,43.85,91.139z"/><path d="M46.184,70.438c0.65,0.65,0.65,1.703,0,2.353c-0.325,0.325-0.751,0.488-1.177,0.488c-0.426,0-0.852-0.163-1.177-0.488   L22.194,51.155c-0.65-0.65-0.65-1.703,0-2.353L43.83,27.165c0.65-0.65,1.703-0.65,2.353,0c0.65,0.65,0.65,1.703,0,2.353   L27.388,48.314h47.577c0.92,0,1.664,0.744,1.664,1.664s-0.744,1.664-1.664,1.664H27.388L46.184,70.438z"/></g></svg>